<svg width="358" height="307" viewBox="0 0 358 307" fill="none" xmlns="http://www.w3.org/2000/svg">
<g clip-path="url(#clip0_38_14035)">
<path d="M0 38.4C0 24.9587 0 18.2381 2.61584 13.1042C4.9168 8.58834 8.58834 4.9168 13.1042 2.61584C18.2381 0 24.9587 0 38.4 0H319.6C333.041 0 339.762 0 344.896 2.61584C349.412 4.9168 353.083 8.58834 355.384 13.1042C358 18.2381 358 24.9587 358 38.4V268.6C358 282.041 358 288.762 355.384 293.896C353.083 298.412 349.412 302.083 344.896 304.384C339.762 307 333.041 307 319.6 307H38.4C24.9587 307 18.2381 307 13.1042 304.384C8.58834 302.083 4.9168 298.412 2.61584 293.896C0 288.762 0 282.041 0 268.6V38.4Z" fill="#F6F7F9"/>
<mask id="mask0_38_14035" style="mask-type:alpha" maskUnits="userSpaceOnUse" x="18" y="0" width="340" height="340">
<circle cx="188" cy="170" r="170" fill="#00040A"/>
</mask>
<g mask="url(#mask0_38_14035)">
<g filter="url(#filter0_f_38_14035)">
<ellipse cx="188" cy="314.874" rx="98.3648" ry="25.1258" fill="#536AF6" fill-opacity="0.5"/>
</g>
<g filter="url(#filter1_f_38_14035)">
<ellipse cx="187.618" cy="25.1258" rx="98.3648" ry="25.1258" fill="#536AF6" fill-opacity="0.18"/>
</g>
</g>
<mask id="mask1_38_14035" style="mask-type:alpha" maskUnits="userSpaceOnUse" x="18" y="0" width="340" height="340">
<circle cx="188" cy="170" r="169.465" stroke="white" stroke-width="1.06918"/>
</mask>
<g mask="url(#mask1_38_14035)">
<g style="mix-blend-mode:overlay" filter="url(#filter2_f_38_14035)">
<circle cx="188.535" cy="170.535" r="114.937" fill="white"/>
</g>
</g>
<mask id="mask2_38_14035" style="mask-type:alpha" maskUnits="userSpaceOnUse" x="65" y="63" width="247" height="247">
<circle cx="188.144" cy="186.144" r="123.144" fill="#1A1D22"/>
</mask>
<g mask="url(#mask2_38_14035)">
<g filter="url(#filter3_f_38_14035)">
<ellipse cx="188.143" cy="291.087" rx="71.2528" ry="18.2005" fill="#536AF6" fill-opacity="0.2"/>
</g>
<g filter="url(#filter4_f_38_14035)">
<ellipse cx="188.253" cy="109.2" rx="71.2528" ry="18.2005" fill="#536AF6" fill-opacity="0.37"/>
</g>
</g>
<mask id="mask3_38_14035" style="mask-type:alpha" maskUnits="userSpaceOnUse" x="65" y="63" width="247" height="247">
<circle cx="188.144" cy="186.144" r="122.756" stroke="white" stroke-width="0.774487"/>
</mask>
<g mask="url(#mask3_38_14035)">
<g style="mix-blend-mode:overlay" filter="url(#filter5_f_38_14035)">
<circle cx="188.531" cy="186.531" r="83.2574" fill="white"/>
</g>
</g>
<path d="M38.8333 135C41.2938 134.997 43.6685 135.887 45.5 137.5V153C43.6685 151.387 41.2938 150.497 38.8333 150.5C37.2713 150.5 36.4903 150.5 36.1453 150.279C35.9381 150.147 35.8535 150.062 35.7209 149.855C35.5 149.51 35.5 148.894 35.5 147.663V138.403C35.5 136.975 35.5 136.262 36.0487 135.683C36.5975 135.104 37.1592 135.074 38.2827 135.015C38.465 135.005 38.6486 135 38.8333 135Z" stroke="#4842C4" stroke-width="1.5" stroke-linecap="round" stroke-linejoin="round"/>
<path d="M45.5 153V137.5C47.3315 135.887 49.7062 134.997 52.1667 135C52.3514 135 52.535 135.005 52.7173 135.015C53.8408 135.074 54.4025 135.104 54.9513 135.683C55.5 136.262 55.5 136.975 55.5 138.403V143.5" stroke="#4842C4" stroke-width="1.5" stroke-linecap="round" stroke-linejoin="round"/>
<path d="M55.1887 146.934L54.5661 146.311C54.151 145.896 53.478 145.896 53.0629 146.311L49.7141 149.66C49.269 150.105 48.9656 150.672 48.8421 151.29L48.5 153L50.2105 152.658C50.8278 152.534 51.3948 152.231 51.8399 151.786L55.1887 148.437C55.6038 148.022 55.6038 147.349 55.1887 146.934Z" stroke="#4842C4" stroke-width="1.5" stroke-linecap="round" stroke-linejoin="round"/>
<path d="M13.76 175.024L10.24 167.776H11.936L13.68 171.496L14.4 173.184H14.504L15.224 171.496L16.96 167.776H18.656L15.144 175.024H13.76ZM13.664 178V173.536H15.24V178H13.664ZM21.833 178.2C20.681 178.2 19.8063 177.893 19.209 177.28C18.6117 176.667 18.313 175.784 18.313 174.632V173.52C18.313 172.373 18.6117 171.496 19.209 170.888C19.8063 170.275 20.681 169.968 21.833 169.968C22.985 169.968 23.857 170.275 24.449 170.888C25.0463 171.496 25.345 172.373 25.345 173.52V174.632C25.345 175.784 25.0463 176.667 24.449 177.28C23.857 177.893 22.985 178.2 21.833 178.2ZM21.833 176.928C22.4677 176.928 22.9503 176.739 23.281 176.36C23.6117 175.981 23.777 175.437 23.777 174.728V173.424C23.777 172.72 23.6117 172.181 23.281 171.808C22.9503 171.429 22.4677 171.24 21.833 171.24C21.1983 171.24 20.7157 171.429 20.385 171.808C20.0543 172.181 19.889 172.72 19.889 173.424V174.728C19.889 175.437 20.0543 175.981 20.385 176.36C20.7157 176.739 21.1983 176.928 21.833 176.928ZM28.4953 170.176V175.008C28.4953 175.381 28.5459 175.709 28.6473 175.992C28.7539 176.269 28.9273 176.485 29.1673 176.64C29.4073 176.795 29.7299 176.872 30.1353 176.872C30.5193 176.872 30.8473 176.803 31.1193 176.664C31.3966 176.525 31.6233 176.339 31.7993 176.104C31.9753 175.864 32.0979 175.597 32.1673 175.304L32.4233 176.392H32.0873C31.9966 176.717 31.8473 177.016 31.6393 177.288C31.4313 177.56 31.1539 177.776 30.8073 177.936C30.4606 178.096 30.0313 178.176 29.5193 178.176C28.9113 178.176 28.4153 178.061 28.0312 177.832C27.6526 177.597 27.3726 177.259 27.1913 176.816C27.0153 176.368 26.9273 175.824 26.9273 175.184V170.176H28.4953ZM33.6793 170.176V178H32.1113L32.1753 176.168L32.1113 176.072V170.176H33.6793ZM37.1679 173.272L36.8319 172.048H37.2159C37.3812 171.429 37.6585 170.944 38.0479 170.592C38.4372 170.235 38.9679 170.056 39.6399 170.056C39.7999 170.056 39.9412 170.069 40.0639 170.096C40.1919 170.117 40.3065 170.144 40.4079 170.176L40.5039 171.704C40.3759 171.661 40.2319 171.629 40.0719 171.608C39.9119 171.581 39.7385 171.568 39.5519 171.568C38.9812 171.568 38.4879 171.715 38.0719 172.008C37.6559 172.301 37.3545 172.723 37.1679 173.272ZM35.6639 178V170.176H37.1919L37.1199 172.456L37.2319 172.568V178H35.6639ZM48.0873 178.192C47.6019 178.192 47.1539 178.155 46.7433 178.08C46.3326 178.005 45.9646 177.912 45.6393 177.8C45.3193 177.688 45.0473 177.576 44.8233 177.464L44.6713 175.888C45.0819 176.123 45.5673 176.331 46.1273 176.512C46.6926 176.693 47.3033 176.784 47.9593 176.784C48.7059 176.784 49.2553 176.661 49.6073 176.416C49.9593 176.165 50.1353 175.789 50.1353 175.288V175.168C50.1353 174.843 50.0633 174.576 49.9193 174.368C49.7806 174.155 49.5433 173.973 49.2073 173.824C48.8713 173.669 48.4153 173.523 47.8393 173.384C47.0819 173.197 46.4686 172.979 45.9993 172.728C45.5353 172.472 45.1966 172.155 44.9833 171.776C44.7699 171.392 44.6633 170.915 44.6633 170.344V170.264C44.6633 169.405 44.9486 168.744 45.5193 168.28C46.0899 167.816 46.9459 167.584 48.0873 167.584C48.8179 167.584 49.4419 167.656 49.9593 167.8C50.4819 167.939 50.9113 168.096 51.2473 168.272L51.3913 169.736C51.0019 169.512 50.5539 169.325 50.0473 169.176C49.5406 169.021 48.9699 168.944 48.3353 168.944C47.8393 168.944 47.4419 169 47.1433 169.112C46.8446 169.219 46.6286 169.376 46.4953 169.584C46.3619 169.787 46.2953 170.032 46.2953 170.32V170.352C46.2953 170.651 46.3619 170.907 46.4953 171.12C46.6286 171.333 46.8633 171.523 47.1993 171.688C47.5406 171.848 48.0233 172.008 48.6473 172.168C49.3886 172.355 49.9859 172.565 50.4393 172.8C50.8979 173.029 51.2339 173.331 51.4473 173.704C51.6606 174.072 51.7673 174.557 51.7673 175.16V175.32C51.7673 176.264 51.4606 176.979 50.8473 177.464C50.2339 177.949 49.3139 178.192 48.0873 178.192ZM56.154 178.16C55.53 178.16 55.0287 178.067 54.65 177.88C54.2713 177.688 53.9967 177.403 53.826 177.024C53.6553 176.64 53.57 176.163 53.57 175.592V170.808H55.122V175.408C55.122 175.888 55.2313 176.24 55.45 176.464C55.6687 176.688 56.0367 176.8 56.554 176.8C56.8633 176.8 57.1593 176.768 57.442 176.704C57.7247 176.64 57.986 176.549 58.226 176.432L58.09 177.76C57.834 177.888 57.538 177.987 57.202 178.056C56.866 178.125 56.5167 178.16 56.154 178.16ZM52.346 171.52V170.272H58.154L58.018 171.52H52.346ZM53.586 170.408L53.578 168.256L55.146 168.072L55.082 170.408H53.586ZM62.5986 178.2C61.4466 178.2 60.572 177.893 59.9746 177.28C59.3773 176.667 59.0786 175.784 59.0786 174.632V173.52C59.0786 172.373 59.3773 171.496 59.9746 170.888C60.572 170.275 61.4466 169.968 62.5986 169.968C63.7506 169.968 64.6226 170.275 65.2146 170.888C65.812 171.496 66.1106 172.373 66.1106 173.52V174.632C66.1106 175.784 65.812 176.667 65.2146 177.28C64.6226 177.893 63.7506 178.2 62.5986 178.2ZM62.5986 176.928C63.2333 176.928 63.716 176.739 64.0466 176.36C64.3773 175.981 64.5426 175.437 64.5426 174.728V173.424C64.5426 172.72 64.3773 172.181 64.0466 171.808C63.716 171.429 63.2333 171.24 62.5986 171.24C61.964 171.24 61.4813 171.429 61.1506 171.808C60.82 172.181 60.6546 172.72 60.6546 173.424V174.728C60.6546 175.437 60.82 175.981 61.1506 176.36C61.4813 176.739 61.964 176.928 62.5986 176.928ZM69.2929 173.272L68.9569 172.048H69.3409C69.5062 171.429 69.7835 170.944 70.1729 170.592C70.5622 170.235 71.0929 170.056 71.7649 170.056C71.9249 170.056 72.0662 170.069 72.1889 170.096C72.3169 170.117 72.4315 170.144 72.5329 170.176L72.6289 171.704C72.5009 171.661 72.3569 171.629 72.1969 171.608C72.0369 171.581 71.8635 171.568 71.6769 171.568C71.1062 171.568 70.6129 171.715 70.1969 172.008C69.7809 172.301 69.4795 172.723 69.2929 173.272ZM67.7889 178V170.176H69.3169L69.2449 172.456L69.3569 172.568V178H67.7889ZM77.6346 176.616L76.8026 176.976L79.0026 170.176H80.6106L77.0506 180.752H75.4666L76.7066 177.08L77.4106 177.672H75.6426L73.1866 170.176H74.8106L76.7626 176.616H77.6346Z" fill="#4842C4"/>
<path d="M188.58 30.7102C188.076 30.5731 187.547 30.5 187 30.5C184.467 30.5 182.3 32.0699 181.42 34.2898M188.58 30.7102C191.127 31.4036 193 33.7331 193 36.5C193 39.8137 190.314 42.5 187 42.5C185.463 42.5 184.061 41.9223 183 40.9722M188.58 30.7102C188.851 30.0262 189 29.2805 189 28.5C189 25.1863 186.314 22.5 183 22.5C179.686 22.5 177 25.1863 177 28.5C177 29.2805 177.149 30.0262 177.42 30.7102M181.42 34.2898C181.149 34.9738 181 35.7195 181 36.5C181 38.277 181.773 39.8736 183 40.9722M181.42 34.2898C179.591 33.792 178.11 32.451 177.42 30.7102M183 40.9722C181.939 41.9223 180.537 42.5 179 42.5C175.686 42.5 173 39.8137 173 36.5C173 33.7331 174.873 31.4036 177.42 30.7102" stroke="#4842C4" stroke-width="1.5" stroke-linecap="round"/>
<path d="M162.376 67L159.336 56.776H161.016L163.536 65.792H163.72L166.24 56.776H167.92L164.888 67H162.376ZM169.204 67V59.176H170.772V67H169.204ZM169.988 58.024C169.678 58.024 169.446 57.9467 169.292 57.792C169.142 57.632 169.068 57.4133 169.068 57.136V57.104C169.068 56.8267 169.142 56.6107 169.292 56.456C169.446 56.296 169.678 56.216 169.988 56.216C170.297 56.216 170.526 56.296 170.676 56.456C170.83 56.6107 170.908 56.8267 170.908 57.104V57.136C170.908 57.4187 170.83 57.6373 170.676 57.792C170.526 57.9467 170.297 58.024 169.988 58.024ZM175.27 67.184C174.641 67.184 174.089 67.12 173.614 66.992C173.139 66.8587 172.742 66.7147 172.422 66.56L172.278 65.128C172.673 65.3253 173.107 65.4987 173.582 65.648C174.057 65.792 174.59 65.864 175.182 65.864C175.753 65.864 176.174 65.7813 176.446 65.616C176.723 65.4453 176.862 65.1947 176.862 64.864V64.8C176.862 64.5867 176.806 64.4107 176.694 64.272C176.582 64.128 176.382 64 176.094 63.888C175.811 63.776 175.409 63.6613 174.886 63.544C174.23 63.3947 173.713 63.2187 173.334 63.016C172.955 62.8133 172.683 62.5653 172.518 62.272C172.358 61.9733 172.278 61.616 172.278 61.2V61.128C172.278 60.424 172.523 59.8907 173.014 59.528C173.505 59.1653 174.241 58.984 175.222 58.984C175.841 58.984 176.379 59.0507 176.838 59.184C177.297 59.3173 177.675 59.4693 177.974 59.64L178.118 60.944C177.761 60.752 177.353 60.592 176.894 60.464C176.441 60.3307 175.937 60.264 175.382 60.264C175.003 60.264 174.699 60.3013 174.47 60.376C174.241 60.4453 174.075 60.5467 173.974 60.68C173.873 60.808 173.822 60.9627 173.822 61.144V61.2C173.822 61.3973 173.875 61.5707 173.982 61.72C174.089 61.864 174.278 61.9947 174.55 62.112C174.827 62.224 175.211 62.3333 175.702 62.44C176.363 62.5787 176.891 62.7413 177.286 62.928C177.681 63.1147 177.966 63.3547 178.142 63.648C178.318 63.936 178.406 64.3093 178.406 64.768V64.888C178.406 65.6507 178.145 66.224 177.622 66.608C177.099 66.992 176.315 67.184 175.27 67.184ZM181.308 59.176V64.008C181.308 64.3813 181.358 64.7093 181.46 64.992C181.566 65.2693 181.74 65.4853 181.98 65.64C182.22 65.7947 182.542 65.872 182.948 65.872C183.332 65.872 183.66 65.8027 183.932 65.664C184.209 65.5253 184.436 65.3387 184.612 65.104C184.788 64.864 184.91 64.5973 184.98 64.304L185.236 65.392H184.9C184.809 65.7173 184.66 66.016 184.452 66.288C184.244 66.56 183.966 66.776 183.62 66.936C183.273 67.096 182.844 67.176 182.332 67.176C181.724 67.176 181.228 67.0613 180.844 66.832C180.465 66.5973 180.185 66.2587 180.004 65.816C179.828 65.368 179.74 64.824 179.74 64.184V59.176H181.308ZM186.492 59.176V67H184.924L184.988 65.168L184.924 65.072V59.176H186.492ZM193.076 67L193.14 65.144L193.084 64.904V62.44L193.092 62.048C193.092 61.4453 192.938 61.0027 192.628 60.72C192.324 60.4373 191.834 60.296 191.156 60.296C190.607 60.296 190.098 60.3733 189.628 60.528C189.159 60.6827 188.735 60.8613 188.356 61.064L188.5 59.752C188.714 59.6293 188.964 59.5093 189.252 59.392C189.54 59.2747 189.866 59.1787 190.228 59.104C190.591 59.0293 190.988 58.992 191.42 58.992C192.012 58.992 192.514 59.064 192.924 59.208C193.335 59.3467 193.666 59.5493 193.916 59.816C194.167 60.0827 194.348 60.4027 194.46 60.776C194.578 61.1493 194.636 61.5653 194.636 62.024V67H193.076ZM190.428 67.176C189.655 67.176 189.063 66.9867 188.652 66.608C188.242 66.224 188.036 65.68 188.036 64.976V64.736C188.036 63.9893 188.266 63.4373 188.724 63.08C189.188 62.7173 189.916 62.4667 190.908 62.328L193.26 61.992L193.348 63.128L191.092 63.448C190.554 63.5227 190.17 63.6533 189.94 63.84C189.711 64.0213 189.596 64.2907 189.596 64.648V64.76C189.596 65.1173 189.706 65.392 189.924 65.584C190.148 65.776 190.487 65.872 190.94 65.872C191.356 65.872 191.714 65.8027 192.012 65.664C192.311 65.5253 192.554 65.3413 192.74 65.112C192.927 64.8773 193.055 64.6187 193.124 64.336L193.34 65.384H193.052C192.967 65.704 192.826 66 192.628 66.272C192.431 66.544 192.154 66.7627 191.796 66.928C191.444 67.0933 190.988 67.176 190.428 67.176ZM196.524 67V56.408H198.092V67H196.524ZM202.629 67.184C202 67.184 201.448 67.12 200.973 66.992C200.499 66.8587 200.101 66.7147 199.781 66.56L199.637 65.128C200.032 65.3253 200.467 65.4987 200.941 65.648C201.416 65.792 201.949 65.864 202.541 65.864C203.112 65.864 203.533 65.7813 203.805 65.616C204.083 65.4453 204.221 65.1947 204.221 64.864V64.8C204.221 64.5867 204.165 64.4107 204.053 64.272C203.941 64.128 203.741 64 203.453 63.888C203.171 63.776 202.768 63.6613 202.245 63.544C201.589 63.3947 201.072 63.2187 200.693 63.016C200.315 62.8133 200.043 62.5653 199.877 62.272C199.717 61.9733 199.637 61.616 199.637 61.2V61.128C199.637 60.424 199.883 59.8907 200.373 59.528C200.864 59.1653 201.6 58.984 202.581 58.984C203.2 58.984 203.739 59.0507 204.197 59.184C204.656 59.3173 205.035 59.4693 205.333 59.64L205.477 60.944C205.12 60.752 204.712 60.592 204.253 60.464C203.8 60.3307 203.296 60.264 202.741 60.264C202.363 60.264 202.059 60.3013 201.829 60.376C201.6 60.4453 201.435 60.5467 201.333 60.68C201.232 60.808 201.181 60.9627 201.181 61.144V61.2C201.181 61.3973 201.235 61.5707 201.341 61.72C201.448 61.864 201.637 61.9947 201.909 62.112C202.187 62.224 202.571 62.3333 203.061 62.44C203.723 62.5787 204.251 62.7413 204.645 62.928C205.04 63.1147 205.325 63.3547 205.501 63.648C205.677 63.936 205.765 64.3093 205.765 64.768V64.888C205.765 65.6507 205.504 66.224 204.981 66.608C204.459 66.992 203.675 67.184 202.629 67.184Z" fill="#4842C4"/>
<path d="M309.037 142.867L310.093 144.996C310.236 145.292 310.62 145.576 310.944 145.631L312.858 145.952C314.082 146.157 314.37 147.052 313.488 147.936L312 149.436C311.748 149.69 311.61 150.18 311.688 150.531L312.114 152.388C312.45 153.857 311.676 154.426 310.386 153.658L308.593 152.587C308.269 152.394 307.735 152.394 307.405 152.587L305.611 153.658C304.327 154.426 303.547 153.851 303.883 152.388L304.309 150.531C304.387 150.18 304.249 149.69 303.997 149.436L302.509 147.936C301.633 147.052 301.915 146.157 303.139 145.952L305.053 145.631C305.371 145.576 305.755 145.292 305.899 144.996L306.955 142.867C307.531 141.711 308.467 141.711 309.037 142.867Z" stroke="#4842C4" stroke-width="1.5" stroke-linecap="round" stroke-linejoin="round"/>
<path d="M322 134L314 142M316 134L311 139M320 142L317 145" stroke="#4842C4" stroke-width="1.5" stroke-linecap="round"/>
<path d="M287.752 178H286.144V167.776H287.752V178ZM292.435 178.176C291.502 178.176 290.79 177.883 290.299 177.296C289.814 176.709 289.571 175.853 289.571 174.728V173.488C289.571 172.352 289.816 171.488 290.307 170.896C290.803 170.299 291.534 170 292.499 170C292.963 170 293.36 170.075 293.691 170.224C294.027 170.368 294.299 170.573 294.507 170.84C294.72 171.107 294.872 171.421 294.963 171.784H295.483L295.043 173.232C295.027 172.805 294.934 172.448 294.763 172.16C294.592 171.867 294.358 171.645 294.059 171.496C293.76 171.347 293.411 171.272 293.011 171.272C292.408 171.272 291.947 171.445 291.627 171.792C291.307 172.139 291.147 172.653 291.147 173.336V174.832C291.147 175.499 291.304 176.005 291.619 176.352C291.939 176.699 292.403 176.872 293.011 176.872C293.379 176.872 293.702 176.803 293.979 176.664C294.262 176.525 294.496 176.336 294.683 176.096C294.87 175.856 294.998 175.587 295.067 175.288L295.435 176.392H294.979C294.894 176.717 294.75 177.016 294.547 177.288C294.35 177.56 294.08 177.776 293.739 177.936C293.398 178.096 292.963 178.176 292.435 178.176ZM295.003 178L295.067 176.168L295.043 175.672V172.424L295.051 172.12L295.011 169.904V167.408H296.571V178H295.003ZM301.987 178.184C300.739 178.184 299.803 177.888 299.179 177.296C298.56 176.699 298.251 175.84 298.251 174.72V173.44C298.251 172.336 298.539 171.483 299.115 170.88C299.696 170.272 300.541 169.968 301.651 169.968C302.403 169.968 303.029 170.107 303.531 170.384C304.032 170.656 304.408 171.043 304.659 171.544C304.909 172.045 305.035 172.64 305.035 173.328V173.624C305.035 173.805 305.027 173.989 305.011 174.176C304.995 174.363 304.973 174.541 304.947 174.712H303.507C303.517 174.435 303.523 174.173 303.523 173.928C303.528 173.683 303.531 173.459 303.531 173.256C303.531 172.824 303.461 172.459 303.323 172.16C303.184 171.861 302.976 171.635 302.699 171.48C302.421 171.32 302.072 171.24 301.651 171.24C301.027 171.24 300.563 171.419 300.259 171.776C299.955 172.128 299.803 172.632 299.803 173.288V174.024L299.811 174.208V174.904C299.811 175.197 299.853 175.464 299.939 175.704C300.029 175.944 300.171 176.152 300.363 176.328C300.56 176.499 300.813 176.632 301.123 176.728C301.432 176.819 301.808 176.864 302.251 176.864C302.752 176.864 303.221 176.8 303.659 176.672C304.101 176.544 304.517 176.373 304.907 176.16L304.763 177.496C304.411 177.704 304 177.872 303.531 178C303.067 178.123 302.552 178.184 301.987 178.184ZM299.083 174.712V173.536H304.627V174.712H299.083ZM311.832 178V173.168C311.832 172.789 311.779 172.461 311.672 172.184C311.571 171.907 311.4 171.691 311.16 171.536C310.926 171.381 310.603 171.304 310.192 171.304C309.814 171.304 309.486 171.373 309.208 171.512C308.931 171.651 308.704 171.837 308.528 172.072C308.358 172.307 308.235 172.573 308.16 172.872L307.904 171.784H308.24C308.331 171.453 308.48 171.155 308.688 170.888C308.896 170.616 309.174 170.4 309.52 170.24C309.867 170.08 310.296 170 310.808 170C311.422 170 311.918 170.117 312.296 170.352C312.675 170.581 312.952 170.917 313.128 171.36C313.31 171.803 313.4 172.347 313.4 172.992V178H311.832ZM306.648 178V170.176H308.216L308.152 172.008L308.216 172.104V178H306.648ZM318.17 178.16C317.546 178.16 317.044 178.067 316.666 177.88C316.287 177.688 316.012 177.403 315.842 177.024C315.671 176.64 315.586 176.163 315.586 175.592V170.808H317.138V175.408C317.138 175.888 317.247 176.24 317.466 176.464C317.684 176.688 318.052 176.8 318.57 176.8C318.879 176.8 319.175 176.768 319.458 176.704C319.74 176.64 320.002 176.549 320.242 176.432L320.106 177.76C319.85 177.888 319.554 177.987 319.218 178.056C318.882 178.125 318.532 178.16 318.17 178.16ZM314.362 171.52V170.272H320.17L320.034 171.52H314.362ZM315.602 170.408L315.594 168.256L317.162 168.072L317.098 170.408H315.602ZM321.61 178V170.176H323.178V178H321.61ZM322.394 169.024C322.084 169.024 321.852 168.947 321.698 168.792C321.548 168.632 321.474 168.413 321.474 168.136V168.104C321.474 167.827 321.548 167.611 321.698 167.456C321.852 167.296 322.084 167.216 322.394 167.216C322.703 167.216 322.932 167.296 323.082 167.456C323.236 167.611 323.314 167.827 323.314 168.104V168.136C323.314 168.419 323.236 168.637 323.082 168.792C322.932 168.947 322.703 169.024 322.394 169.024ZM328.092 178.16C327.468 178.16 326.966 178.067 326.588 177.88C326.209 177.688 325.934 177.403 325.764 177.024C325.593 176.64 325.508 176.163 325.508 175.592V170.808H327.06V175.408C327.06 175.888 327.169 176.24 327.388 176.464C327.606 176.688 327.974 176.8 328.492 176.8C328.801 176.8 329.097 176.768 329.38 176.704C329.662 176.64 329.924 176.549 330.164 176.432L330.028 177.76C329.772 177.888 329.476 177.987 329.14 178.056C328.804 178.125 328.454 178.16 328.092 178.16ZM324.284 171.52V170.272H330.092L329.956 171.52H324.284ZM325.524 170.408L325.516 168.256L327.084 168.072L327.02 170.408H325.524ZM335.119 176.616L334.287 176.976L336.487 170.176H338.095L334.535 180.752H332.951L334.191 177.08L334.895 177.672H333.127L330.671 170.176H332.295L334.247 176.616H335.119Z" fill="#4842C4"/>
<rect x="118" y="122" width="130" height="64" rx="19" fill="#4842C4"/>
<path d="M142.113 156.841L138.162 148.498H140.646L142.329 152.287L143.085 154.177H143.22L143.976 152.287L145.65 148.498H148.134L144.201 156.841H142.113ZM141.996 160V154.699H144.318V160H141.996ZM152.044 160.243C150.676 160.243 149.638 159.892 148.93 159.19C148.228 158.488 147.877 157.489 147.877 156.193V154.996C147.877 153.694 148.228 152.692 148.93 151.99C149.638 151.282 150.676 150.928 152.044 150.928C153.406 150.928 154.438 151.282 155.14 151.99C155.842 152.692 156.193 153.694 156.193 154.996V156.193C156.193 157.489 155.842 158.488 155.14 159.19C154.444 159.892 153.412 160.243 152.044 160.243ZM152.044 158.398C152.644 158.398 153.1 158.218 153.412 157.858C153.73 157.498 153.889 156.982 153.889 156.31V154.879C153.889 154.195 153.73 153.673 153.412 153.313C153.1 152.947 152.644 152.764 152.044 152.764C151.438 152.764 150.976 152.947 150.658 153.313C150.346 153.673 150.19 154.195 150.19 154.879V156.31C150.19 156.982 150.346 157.498 150.658 157.858C150.976 158.218 151.438 158.398 152.044 158.398ZM160.452 151.171V156.481C160.452 156.847 160.5 157.168 160.596 157.444C160.698 157.714 160.863 157.924 161.091 158.074C161.325 158.218 161.637 158.29 162.027 158.29C162.381 158.29 162.687 158.227 162.945 158.101C163.203 157.975 163.416 157.807 163.584 157.597C163.752 157.381 163.875 157.141 163.953 156.877L164.313 158.128H163.881C163.785 158.512 163.623 158.863 163.395 159.181C163.173 159.493 162.867 159.742 162.477 159.928C162.093 160.114 161.61 160.207 161.028 160.207C160.356 160.207 159.807 160.078 159.381 159.82C158.961 159.562 158.649 159.181 158.445 158.677C158.247 158.173 158.148 157.552 158.148 156.814V151.171H160.452ZM166.203 151.171V160H163.908L163.989 157.858L163.899 157.669V151.171H166.203ZM170.823 154.87L170.238 153.331H170.796C170.958 152.617 171.252 152.056 171.678 151.648C172.104 151.24 172.695 151.036 173.451 151.036C173.607 151.036 173.748 151.048 173.874 151.072C174 151.09 174.114 151.114 174.216 151.144L174.342 153.448C174.21 153.406 174.057 153.376 173.883 153.358C173.709 153.334 173.526 153.322 173.334 153.322C172.722 153.322 172.2 153.457 171.768 153.727C171.342 153.997 171.027 154.378 170.823 154.87ZM168.582 160V151.171H170.778L170.679 153.88L170.886 153.961V160H168.582ZM181.781 160V158.11H185.003C185.627 158.11 186.071 157.987 186.335 157.741C186.599 157.489 186.731 157.132 186.731 156.67V156.454C186.731 155.98 186.596 155.62 186.326 155.374C186.062 155.128 185.606 155.005 184.958 155.005H181.754V153.241H184.904C185.498 153.241 185.921 153.118 186.173 152.872C186.425 152.626 186.551 152.281 186.551 151.837V151.72C186.551 151.276 186.428 150.937 186.182 150.703C185.936 150.469 185.51 150.352 184.904 150.352H181.736V148.498H185.147C186.479 148.498 187.436 148.735 188.018 149.209C188.6 149.683 188.891 150.37 188.891 151.27V151.423C188.891 152.107 188.72 152.638 188.378 153.016C188.042 153.394 187.514 153.619 186.794 153.691V153.781C187.604 153.913 188.192 154.201 188.558 154.645C188.93 155.089 189.116 155.713 189.116 156.517V156.814C189.116 157.846 188.81 158.635 188.198 159.181C187.592 159.727 186.617 160 185.273 160H181.781ZM180.107 160V148.498H182.402V160H180.107ZM193.366 154.87L192.781 153.331H193.339C193.501 152.617 193.795 152.056 194.221 151.648C194.647 151.24 195.238 151.036 195.994 151.036C196.15 151.036 196.291 151.048 196.417 151.072C196.543 151.09 196.657 151.114 196.759 151.144L196.885 153.448C196.753 153.406 196.6 153.376 196.426 153.358C196.252 153.334 196.069 153.322 195.877 153.322C195.265 153.322 194.743 153.457 194.311 153.727C193.885 153.997 193.57 154.378 193.366 154.87ZM191.125 160V151.171H193.321L193.222 153.88L193.429 153.961V160H191.125ZM203.365 160L203.446 157.84L203.383 157.642V154.879L203.374 154.483C203.374 153.907 203.215 153.484 202.897 153.214C202.585 152.944 202.072 152.809 201.358 152.809C200.752 152.809 200.182 152.89 199.648 153.052C199.12 153.208 198.631 153.391 198.181 153.601L198.379 151.765C198.643 151.627 198.943 151.498 199.279 151.378C199.621 151.252 200.002 151.15 200.422 151.072C200.842 150.994 201.295 150.955 201.781 150.955C202.501 150.955 203.11 151.042 203.608 151.216C204.106 151.384 204.502 151.627 204.796 151.945C205.096 152.263 205.312 152.644 205.444 153.088C205.576 153.526 205.642 154.012 205.642 154.546V160H203.365ZM200.476 160.207C199.6 160.207 198.931 159.988 198.469 159.55C198.013 159.112 197.785 158.488 197.785 157.678V157.426C197.785 156.568 198.049 155.935 198.577 155.527C199.105 155.113 199.942 154.828 201.088 154.672L203.59 154.33L203.725 155.815L201.421 156.148C200.917 156.214 200.557 156.334 200.341 156.508C200.131 156.682 200.026 156.937 200.026 157.273V157.363C200.026 157.693 200.128 157.951 200.332 158.137C200.542 158.317 200.869 158.407 201.313 158.407C201.709 158.407 202.048 158.344 202.33 158.218C202.612 158.092 202.843 157.927 203.023 157.723C203.209 157.513 203.341 157.279 203.419 157.021L203.743 158.164H203.347C203.251 158.542 203.095 158.887 202.879 159.199C202.669 159.505 202.372 159.751 201.988 159.937C201.604 160.117 201.1 160.207 200.476 160.207ZM213.645 160V154.699C213.645 154.327 213.594 154.006 213.492 153.736C213.396 153.466 213.234 153.256 213.006 153.106C212.778 152.956 212.466 152.881 212.07 152.881C211.722 152.881 211.416 152.944 211.152 153.07C210.894 153.196 210.681 153.367 210.513 153.583C210.351 153.793 210.228 154.033 210.144 154.303L209.784 153.043H210.216C210.312 152.653 210.471 152.302 210.693 151.99C210.921 151.678 211.227 151.432 211.611 151.252C212.001 151.066 212.487 150.973 213.069 150.973C213.747 150.973 214.296 151.102 214.716 151.36C215.136 151.612 215.445 151.99 215.643 152.494C215.847 152.998 215.949 153.622 215.949 154.366V160H213.645ZM207.894 160V151.171H210.198L210.108 153.322L210.198 153.511V160H207.894ZM221.1 160.207C220.062 160.207 219.273 159.871 218.733 159.199C218.193 158.527 217.923 157.537 217.923 156.229V155.014C217.923 153.688 218.196 152.683 218.742 151.999C219.288 151.315 220.101 150.973 221.181 150.973C221.709 150.973 222.153 151.057 222.513 151.225C222.879 151.393 223.173 151.633 223.395 151.945C223.623 152.257 223.782 152.623 223.872 153.043H224.547L223.962 154.753C223.95 154.339 223.863 153.991 223.701 153.709C223.545 153.421 223.326 153.202 223.044 153.052C222.762 152.902 222.429 152.827 222.045 152.827C221.463 152.827 221.016 152.995 220.704 153.331C220.398 153.667 220.245 154.168 220.245 154.834V156.292C220.245 156.952 220.398 157.45 220.704 157.786C221.016 158.122 221.469 158.29 222.063 158.29C222.399 158.29 222.699 158.227 222.963 158.101C223.227 157.975 223.446 157.804 223.62 157.588C223.8 157.366 223.929 157.117 224.007 156.841L224.556 158.128H223.908C223.812 158.512 223.656 158.863 223.44 159.181C223.224 159.493 222.927 159.742 222.549 159.928C222.171 160.114 221.688 160.207 221.1 160.207ZM223.926 160L224.007 157.84L223.962 157.327V153.718L223.971 153.349L223.926 150.82V148.102H226.23V160H223.926Z" fill="white"/>
</g>
<defs>
<filter id="filter0_f_38_14035" x="-75.0188" y="125.094" width="526.038" height="379.56" filterUnits="userSpaceOnUse" color-interpolation-filters="sRGB">
<feFlood flood-opacity="0" result="BackgroundImageFix"/>
<feBlend mode="normal" in="SourceGraphic" in2="BackgroundImageFix" result="shape"/>
<feGaussianBlur stdDeviation="82.327" result="effect1_foregroundBlur_38_14035"/>
</filter>
<filter id="filter1_f_38_14035" x="9.79039" y="-79.4624" width="355.654" height="209.176" filterUnits="userSpaceOnUse" color-interpolation-filters="sRGB">
<feFlood flood-opacity="0" result="BackgroundImageFix"/>
<feBlend mode="normal" in="SourceGraphic" in2="BackgroundImageFix" result="shape"/>
<feGaussianBlur stdDeviation="39.7312" result="effect1_foregroundBlur_38_14035"/>
</filter>
<filter id="filter2_f_38_14035" x="-133.824" y="-151.824" width="644.717" height="644.717" filterUnits="userSpaceOnUse" color-interpolation-filters="sRGB">
<feFlood flood-opacity="0" result="BackgroundImageFix"/>
<feBlend mode="normal" in="SourceGraphic" in2="BackgroundImageFix" result="shape"/>
<feGaussianBlur stdDeviation="103.711" result="effect1_foregroundBlur_38_14035"/>
</filter>
<filter id="filter3_f_38_14035" x="-2.38045" y="153.615" width="381.048" height="274.943" filterUnits="userSpaceOnUse" color-interpolation-filters="sRGB">
<feFlood flood-opacity="0" result="BackgroundImageFix"/>
<feBlend mode="normal" in="SourceGraphic" in2="BackgroundImageFix" result="shape"/>
<feGaussianBlur stdDeviation="59.6355" result="effect1_foregroundBlur_38_14035"/>
</filter>
<filter id="filter4_f_38_14035" x="36.4533" y="10.4533" width="303.599" height="197.494" filterUnits="userSpaceOnUse" color-interpolation-filters="sRGB">
<feFlood flood-opacity="0" result="BackgroundImageFix"/>
<feBlend mode="normal" in="SourceGraphic" in2="BackgroundImageFix" result="shape"/>
<feGaussianBlur stdDeviation="40.2733" result="effect1_foregroundBlur_38_14035"/>
</filter>
<filter id="filter5_f_38_14035" x="-44.9773" y="-46.9771" width="467.016" height="467.016" filterUnits="userSpaceOnUse" color-interpolation-filters="sRGB">
<feFlood flood-opacity="0" result="BackgroundImageFix"/>
<feBlend mode="normal" in="SourceGraphic" in2="BackgroundImageFix" result="shape"/>
<feGaussianBlur stdDeviation="75.1253" result="effect1_foregroundBlur_38_14035"/>
</filter>
<clipPath id="clip0_38_14035">
<path d="M0 38.4C0 24.9587 0 18.2381 2.61584 13.1042C4.9168 8.58834 8.58834 4.9168 13.1042 2.61584C18.2381 0 24.9587 0 38.4 0H319.6C333.041 0 339.762 0 344.896 2.61584C349.412 4.9168 353.083 8.58834 355.384 13.1042C358 18.2381 358 24.9587 358 38.4V268.6C358 282.041 358 288.762 355.384 293.896C353.083 298.412 349.412 302.083 344.896 304.384C339.762 307 333.041 307 319.6 307H38.4C24.9587 307 18.2381 307 13.1042 304.384C8.58834 302.083 4.9168 298.412 2.61584 293.896C0 288.762 0 282.041 0 268.6V38.4Z" fill="white"/>
</clipPath>
</defs>
</svg>
