<svg width="25" height="25" viewBox="0 0 25 25" fill="none" xmlns="http://www.w3.org/2000/svg">
<path d="M16.4301 15.8129C16.3066 15.8841 16.157 15.9099 16.0033 15.8687C15.7062 15.7891 15.5262 15.4773 15.6058 15.1802L17.1266 9.50438L11.4508 7.98355C11.1537 7.90394 10.9737 7.59217 11.0533 7.29506C11.1329 6.99795 11.4447 6.81795 11.7418 6.89756L17.9606 8.56389C18.2577 8.6435 18.4377 8.95527 18.3581 9.25238L16.6918 15.4712C16.6506 15.6249 16.5535 15.7416 16.4301 15.8129Z" fill="white"/>
<path d="M17.986 9.65766L7.05455 15.9689C6.78825 16.1227 6.43991 16.0293 6.28616 15.763C6.13241 15.4967 6.22575 15.1484 6.49205 14.9946L17.4235 8.68338C17.6898 8.52963 18.0381 8.62297 18.1918 8.88927C18.3456 9.15557 18.2523 9.50391 17.986 9.65766Z" fill="white"/>
</svg>
